<svg width="400" height="400" viewBox="0 0 400 400" xmlns="http://www.w3.org/2000/svg">
  <defs>
    <linearGradient id="rg2" x1="0%" y1="0%" x2="100%" y2="100%"><stop offset="0%" stop-color="#F4C874"/><stop offset="55%" stop-color="#E8A840"/><stop offset="100%" stop-color="#C98A2A"/></linearGradient>
    <linearGradient id="cg2" x1="0%" y1="100%" x2="0%" y2="0%"><stop offset="0%" stop-color="#7EE0B8"/><stop offset="100%" stop-color="#3FBF8A"/></linearGradient>
    <radialGradient id="gl2" cx="50%" cy="50%" r="50%"><stop offset="0%" stop-color="#E8A840" stop-opacity="0.28"/><stop offset="100%" stop-color="#E8A840" stop-opacity="0"/></radialGradient>
    <linearGradient id="sg2" x1="0%" y1="0%" x2="100%" y2="100%"><stop offset="0%" stop-color="#F4C874" stop-opacity="0.05"/><stop offset="45%" stop-color="#F4C874" stop-opacity="0.85"/><stop offset="55%" stop-color="#F4C874" stop-opacity="0.85"/><stop offset="100%" stop-color="#F4C874" stop-opacity="0.05"/></linearGradient>
    <filter id="sgl2" x="-50%" y="-50%" width="200%" height="200%"><feGaussianBlur stdDeviation="4" result="b"/><feMerge><feMergeNode in="b"/><feMergeNode in="SourceGraphic"/></feMerge></filter>
  </defs>
  <rect width="400" height="400" fill="#0E0B12"/>
  <circle cx="200" cy="200" r="175" fill="url(#gl2)"/>
  <circle cx="200" cy="200" r="180" fill="none" stroke="url(#rg2)" stroke-width="6" filter="url(#sgl2)"/>
  <g>
    <rect x="104" y="240" width="16" height="45" rx="2" fill="url(#cg2)"/><line x1="112" y1="228" x2="112" y2="295" stroke="#3FBF8A" stroke-width="3"/>
    <rect x="146" y="204" width="16" height="63" rx="2" fill="url(#cg2)"/><line x1="154" y1="188" x2="154" y2="278" stroke="#3FBF8A" stroke-width="3"/>
    <rect x="188" y="168" width="16" height="65" rx="2" fill="#8A8199"/><line x1="196" y1="154" x2="196" y2="243" stroke="#8A8199" stroke-width="3"/>
    <rect x="230" y="122" width="16" height="72" rx="2" fill="url(#cg2)"/><line x1="238" y1="104" x2="238" y2="204" stroke="#3FBF8A" stroke-width="3"/>
    <rect x="272" y="80" width="16" height="68" rx="2" fill="url(#cg2)"/><line x1="280" y1="63" x2="280" y2="158" stroke="#3FBF8A" stroke-width="3"/>
  </g>
  <g filter="url(#sgl2)"><line x1="90" y1="300" x2="296" y2="60" stroke="url(#sg2)" stroke-width="9" stroke-linecap="round"/></g>
  <circle cx="296" cy="60" r="6" fill="#F4C874"/><circle cx="90" cy="300" r="6" fill="#F4C874" opacity="0.35"/>
</svg>
